<svg width="72" height="8" viewBox="0 0 72 8" fill="none" xmlns="http://www.w3.org/2000/svg">
<path d="M72 1.18121C71.6334 1.12752 71.2974 1.12752 70.9308 1.12752C70.5643 1.12752 70.2283 1.07383 69.8617 1.02013C69.0675 0.912752 68.3038 0.751678 67.5095 0.644295C66.0127 0.42953 64.4854 0.214765 62.9885 0.161074C61.6139 0.0536913 60.2087 0 58.8341 0C58.4675 0 58.101 0 57.765 0C56.3903 0.0536913 55.0157 0.0536913 53.6411 0.107383C50.4336 0.268456 47.1956 0.42953 43.9881 0.697987C40.8417 0.966443 37.6954 1.2349 34.5795 1.55705C33.0522 1.71812 31.4943 1.87919 29.9669 2.04027C28.2868 2.30872 26.6067 2.4698 24.9571 2.68456C21.5053 3.16779 18.084 3.59732 14.6322 4.08054C11.6385 4.51007 8.67544 5.10067 5.71235 5.85235C3.81841 6.38926 1.89393 6.97987 0 7.57047C2.16886 7.83893 4.36826 7.94631 6.56767 8C8.00339 8 9.43912 7.94631 10.8443 7.89262C11.7607 7.83893 12.6771 7.73154 13.6241 7.62416C14.2045 7.57047 14.7543 7.46309 15.3042 7.3557C16.801 7.08725 18.3284 6.87248 19.8252 6.60403C21.5664 6.33557 23.277 6.01342 25.0182 5.74497C26.79 5.47651 28.5923 5.20805 30.364 4.9396C31.9525 4.72483 33.5715 4.51007 35.1905 4.2953C36.7484 4.08054 38.3369 3.91946 39.8948 3.75839C41.4832 3.59732 43.0412 3.43624 44.6296 3.27517C46.2486 3.11409 47.8371 3.0604 49.4561 2.95302C52.3886 2.73826 55.3212 2.68456 58.2843 2.63087C59.9338 2.63087 61.5528 2.52349 63.2024 2.41611C64.8214 2.30872 66.4404 2.20134 68.0288 2.04027C68.6703 1.98658 69.3424 1.93289 69.9839 1.8255C70.2894 1.77181 70.6254 1.71812 70.9308 1.61074C71.2058 1.50336 71.4807 1.34228 71.7556 1.28859C71.8473 1.2349 71.9084 1.18121 72 1.18121Z" fill="#FA58B6"/>
</svg>
